<svg xmlns="http://www.w3.org/2000/svg" viewBox="0 0 1491 949"><defs><style>.cls-1{fill:#fff;}</style></defs><title>logo_white</title><g id="Layer_1" data-name="Layer 1"><path class="cls-1" d="M394.08,360.07c64.47,71.15,102.54,165.28,105.4,261.3.72,24.16.39,49.65-8.3,72.54-7.76,20.48-23.13,36.13-42.7,45.64-41.81,20.33-89.51,10.29-128.9-10.61-22.08-11.72-42.42-26.42-62.31-41.49-19.52-14.79-38.77-29.94-57.51-45.71-36.7-30.89-71.58-64.26-101.55-101.81-58.5-73.32-96.34-166.2-84.32-261.25a234.72,234.72,0,0,1,57.7-127.22C102.16,117.09,140.45,89.37,181,68c78.31-41.31,167.72-58,255.76-56.54C527.44,12.93,618,33.12,701.31,68.66c87.7,37.4,171.22,96.49,209,187.19,17.85,42.84,24.59,91.08,13.53,136.56-9.88,40.64-33.14,77.39-64.47,104.93C827.48,525.39,787,543.19,744.51,546a209.09,209.09,0,0,1-123.65-31.44,195.9,195.9,0,0,1-24.69-18.18q-6-5.24-11.63-10.95c-2.69-2.74-8.74-7.37-9.86-11.11l-.5,3.83c-.38.72,10.87,2.71,13,3.26a92.19,92.19,0,0,1,15.56,5.67,129.86,129.86,0,0,1,26.74,17.08c17.37,14.18,31.33,31.81,44.92,49.5,25.45,33.11,52.27,67.91,94,80.52,18.21,5.51,38.74,6,56.29-2.09,14-6.46,24.83-19,30.8-33,5.65-13.34,7.18-28.92,1.44-42.5-2.19-5.2-6.8-15.22-13.94-12.24-7.81,3.26-2.76,17.09-1.4,23,9.57,41.75,35.65,77.55,44.28,119.65,7.65,37.31,3.58,76.51-9.43,112.17C863.33,835,840.72,867.45,811,891.49c-31.13,25.19-70,40.47-109.53,45.58a239.35,239.35,0,0,1-118.82-14.74c-19.25-7.69-38.46-18.26-50.73-35.53-5.49-7.73-9.71-17-8.91-26.65,1-11.91,12.5-17.68,21.64-23.63C581,812.88,623.19,800.64,665,790.85c41-9.59,82.28-17.42,124-23,80.28-10.74,161.41-14.92,242.37-15.56q88.92-.7,177.78,4.5c20.2,1.2,40.38,2.73,60.55,4.43,57.13,4.79,114.71,10.49,170.89,22.18a329,329,0,0,1,36.32,9.35c6.09,2,8.7-7.59,2.64-9.59-22.24-7.32-45.54-11.5-68.6-15.27-26.55-4.34-53.26-7.72-80-10.67s-53.25-5.26-79.93-7.43c-82.38-6.72-165.3-8.65-247.92-7.06-68.47,1.33-137,5.37-204.94,14-34.34,4.36-68.55,9.86-102.41,17.11-35.42,7.59-71.08,15.47-105,28.55a279.71,279.71,0,0,0-47.24,23.06,223.1,223.1,0,0,0-20.13,14.13c-3.37,2.66-6,4.54-7.62,8.57a38.94,38.94,0,0,0-2.67,11c-3,32.91,31.38,57.19,57.59,68.83,60.75,27,132.46,28,193.84,2.34C824,905.42,868.9,855.13,888.69,793.92c9.65-29.84,13.23-61.88,9.41-93-4.24-34.59-19.28-64.78-33.06-96.31a278.46,278.46,0,0,1-10-26c-1.35-4.19-2.57-8.44-3.59-12.73-.29-1.21-2.47-13.39-3.43-13h-5c3.86,1.8,6,10,6.77,13.67a43,43,0,0,1,.25,16.3,57.2,57.2,0,0,1-14.56,29.23c-18.61,19.8-48.2,19.13-71.94,9.92C706.25,599.78,683,536.21,638.25,498.58,628,490,616.91,482.45,604.66,477.09a99.79,99.79,0,0,0-18.1-6.08c-4.94-1.12-13.23-3.72-17.92-1.18-11,5.95,5.94,19.7,10.37,24.12a208.69,208.69,0,0,0,29.69,24.51C651,547.35,704.21,561,755.12,554.94c101.15-12.13,181.9-102.7,184-204.25,1.15-55.86-19.45-111-51.77-156C854,148.24,808,112.33,758.06,85.06,662,32.58,550.48,4.15,441.24,1.58,335.94-.89,228.18,22.51,139.46,81,92.57,111.89,49,152.11,25,203.76,2.19,253.07-2.52,308.65,5.57,362c17.58,115.76,95.2,208.37,181.64,282.1,22.06,18.81,44.87,36.75,68,54.19,24.19,18.22,49.24,35.78,77.17,47.81,45.41,19.57,102,21.94,141.87-11.43,20.36-17,30.09-41.78,33.43-67.58,3.77-29.09,2.09-59.22-1.81-88.2a422.72,422.72,0,0,0-55.46-159.21A415.56,415.56,0,0,0,401.11,353c-4.3-4.75-11.31,2.3-7,7Z"/></g></svg>