<?xml version="1.0" encoding="utf-8"?>
<!-- Generator: Adobe Illustrator 24.0.1, SVG Export Plug-In . SVG Version: 6.00 Build 0)  -->
<svg version="1.1" id="Layer_1" xmlns="http://www.w3.org/2000/svg" xmlns:xlink="http://www.w3.org/1999/xlink" x="0px" y="0px"
	 viewBox="0 0 1080 1080" style="enable-background:new 0 0 1080 1080;" xml:space="preserve">
<style type="text/css">
	.st0{fill:none;stroke:#000000;stroke-width:35;stroke-linecap:round;stroke-miterlimit:10;}
</style>
<g>
	<path class="st0" d="M350.4,243.6c37.4,8.7,66.6,23.3,90,44.6c33.7,29.7,52.5,75.3,52.5,126.8c0,87.9-55.1,146.2-125.1,170.1
		c-0.5,0.2-0.8,0.6-0.8,1.1v1.4c0,0.5,0.3,0.9,0.7,1.1c51.1,18,81.5,65.4,97.3,134.5c12.7,54.3,23.4,98.8,32.9,131.6
		c8.5,29.6,33.9,51.2,64.5,55.2c9.6,1.2,19.8,1.9,30.4,1.9c86,0,136.6-38.6,136.6-184.1v-477"/>
</g>
<g>
	<path d="M540,35.9c68.2,0,134.3,13.3,196.6,39.7c60.1,25.4,114.1,61.9,160.5,108.2c46.4,46.4,82.8,100.4,108.2,160.5
		c26.3,62.2,39.7,128.4,39.7,196.6s-13.3,134.3-39.7,196.6c-25.4,60.1-61.9,114.1-108.2,160.5c-46.4,46.4-100.4,82.8-160.5,108.2
		c-62.2,26.3-128.4,39.7-196.6,39.7s-134.3-13.3-196.6-39.7c-60.1-25.4-114.1-61.9-160.5-108.2S100.1,797.6,74.7,737.5
		C48.3,675.2,35,609.1,35,540.9s13.3-134.3,39.7-196.6c25.4-60.1,61.9-114.1,108.2-160.5c46.4-46.4,100.4-82.8,160.5-108.2
		C405.7,49.2,471.8,35.9,540,35.9 M540,0.9C241.8,0.9,0,242.7,0,540.9s241.8,540,540,540s540-241.8,540-540S838.2,0.9,540,0.9
		L540,0.9z"/>
</g>
</svg>
