<?xml version="1.0" encoding="utf-8"?>
<!-- Generator: Adobe Illustrator 23.0.3, SVG Export Plug-In . SVG Version: 6.00 Build 0)  -->
<svg version="1.1" id="Layer_1" xmlns="http://www.w3.org/2000/svg" xmlns:xlink="http://www.w3.org/1999/xlink" x="0px" y="0px"
	 viewBox="0 0 1080 1080" style="enable-background:new 0 0 1080 1080;" xml:space="preserve">
<style type="text/css">
	.st0{fill:none;stroke:#000000;stroke-width:18.1712;stroke-linecap:round;stroke-miterlimit:10;}
	.st1{fill:none;stroke:#000000;stroke-width:18.1712;stroke-miterlimit:10;}
</style>
<g>
	<path class="st0" d="M350.4,243.6c37.4,8.7,66.6,23.3,90,44.6c33.7,29.7,52.5,75.3,52.5,126.8c0,87.9-55.1,146.2-125.1,170.1
		c-0.5,0.2-0.8,0.6-0.8,1.1v1.4c0,0.5,0.3,0.9,0.7,1.1c51.1,18,81.5,65.4,97.3,134.5c12.7,54.3,23.4,98.8,32.9,131.6
		c8.5,29.6,33.9,51.2,64.5,55.2c9.6,1.2,19.8,1.9,30.4,1.9c86,0,136.6-38.6,136.6-184.1V250.8"/>
</g>
<circle class="st1" cx="540" cy="540.9" r="522"/>
</svg>
