<?xml version="1.0" encoding="utf-8"?>
<!-- Generator: Adobe Illustrator 23.0.3, SVG Export Plug-In . SVG Version: 6.00 Build 0)  -->
<svg version="1.1" id="Layer_1" xmlns="http://www.w3.org/2000/svg" xmlns:xlink="http://www.w3.org/1999/xlink" x="0px" y="0px"
	 viewBox="0 0 129 129" style="enable-background:new 0 0 129 129;" xml:space="preserve">
<style type="text/css">
	.st0{fill:#C2D8F8;}
</style>
<g>
	<g>
		<path class="st0" d="M64.5,92.6c15.5,0,28-12.6,28-28s-12.6-28-28-28s-28,12.6-28,28S49,92.6,64.5,92.6z M64.5,44.7
			c11,0,19.9,8.9,19.9,19.9s-8.9,19.9-19.9,19.9s-19.9-8.9-19.9-19.9S53.5,44.7,64.5,44.7z"/>
		<path class="st0" d="M68.6,23.6V10.7c0-2.3-1.8-4.1-4.1-4.1s-4.1,1.8-4.1,4.1v12.9c0,2.3,1.8,4.1,4.1,4.1
			C66.8,27.7,68.6,25.9,68.6,23.6z"/>
		<path class="st0" d="M60.4,105.6v12.9c0,2.3,1.8,4.1,4.1,4.1c2.3,0,4.1-1.8,4.1-4.1v-12.9c0-2.3-1.8-4.1-4.1-4.1
			S60.4,103.3,60.4,105.6z"/>
		<path class="st0" d="M96.4,38.5l9.1-9.1c1.6-1.6,1.6-4.2,0-5.8c-1.6-1.6-4.2-1.6-5.8,0l-9.1,9.1c-1.6,1.6-1.6,4.2,0,5.8
			c0.8,0.8,1.8,1.2,2.9,1.2S95.6,39.3,96.4,38.5z"/>
		<path class="st0" d="M23.5,105.6c0.8,0.8,1.8,1.2,2.9,1.2c1,0,2.1-0.4,2.9-1.2l9.1-9.1c1.6-1.6,1.6-4.2,0-5.8
			c-1.6-1.6-4.2-1.6-5.8,0l-9.1,9.1C21.9,101.4,21.9,104,23.5,105.6z"/>
		<path class="st0" d="M122.5,64.6c0-2.3-1.8-4.1-4.1-4.1h-12.9c-2.3,0-4.1,1.8-4.1,4.1c0,2.3,1.8,4.1,4.1,4.1h12.9
			C120.6,68.7,122.5,66.9,122.5,64.6z"/>
		<path class="st0" d="M10.6,68.7h12.9c2.3,0,4.1-1.8,4.1-4.1c0-2.3-1.8-4.1-4.1-4.1H10.6c-2.3,0-4.1,1.8-4.1,4.1
			C6.5,66.9,8.4,68.7,10.6,68.7z"/>
		<path class="st0" d="M102.6,106.8c1,0,2.1-0.4,2.9-1.2c1.6-1.6,1.6-4.2,0-5.8l-9.1-9.1c-1.6-1.6-4.2-1.6-5.8,0
			c-1.6,1.6-1.6,4.2,0,5.8l9.1,9.1C100.5,106.4,101.6,106.8,102.6,106.8z"/>
		<path class="st0" d="M38.4,38.5c1.6-1.6,1.6-4.2,0-5.8l-9.1-9.1c-1.6-1.6-4.2-1.6-5.8,0c-1.6,1.6-1.6,4.2,0,5.8l9.1,9.1
			c0.8,0.8,1.8,1.2,2.9,1.2S37.6,39.3,38.4,38.5z"/>
	</g>
</g>
</svg>
